<?xml version="1.0" standalone="no"?>
<!DOCTYPE svg PUBLIC "-//W3C//DTD SVG 20010904//EN"
 "http://www.w3.org/TR/2001/REC-SVG-20010904/DTD/svg10.dtd">
<svg version="1.0" xmlns="http://www.w3.org/2000/svg"
 width="1280.000000pt" height="1022.000000pt" viewBox="0 0 1280.000000 1022.000000"
 preserveAspectRatio="xMidYMid meet">
<g transform="translate(0.000000,1022.000000) scale(0.100000,-0.100000)"
fill="#000000" stroke="none">
<path d="M4925 10210 c-3 -5 -8 -177 -11 -382 -3 -205 -10 -400 -15 -433 -14
-81 -52 -214 -143 -502 -92 -293 -126 -382 -171 -458 -19 -32 -35 -62 -35 -67
0 -5 20 -34 45 -65 46 -56 54 -73 34 -73 -18 0 -439 125 -694 206 -132 42
-261 82 -286 89 -46 13 -99 10 -99 -6 0 -5 33 -76 73 -157 107 -217 194 -493
234 -743 26 -162 26 -706 0 -889 -30 -210 -94 -480 -115 -480 -22 1 -904 741
-984 826 -37 40 -88 149 -88 191 0 20 5 23 38 23 21 0 89 6 152 14 63 8 209
17 324 20 115 3 214 10 219 15 17 17 -53 49 -145 66 -96 18 -188 44 -188 54 0
4 38 12 84 18 97 13 178 45 206 81 28 35 25 42 -12 31 -18 -5 -79 -9 -135 -9
-81 0 -118 5 -180 25 -78 24 -81 24 -210 12 -71 -7 -135 -11 -142 -9 -6 2 -11
13 -11 23 0 31 -19 59 -40 59 -35 0 -40 -32 -40 -240 0 -183 -2 -203 -19 -228
-11 -15 -43 -112 -71 -217 -48 -180 -105 -383 -116 -414 -9 -27 -55 31 -209
264 -100 150 -203 289 -295 400 -79 94 -188 225 -242 293 -55 67 -106 122
-114 122 -37 0 -5 -124 77 -298 251 -530 599 -1529 599 -1718 0 -22 -56 -283
-124 -580 -194 -840 -302 -1273 -325 -1297 -9 -9 -168 11 -384 48 -82 14 -170
25 -197 25 -71 0 -96 26 -115 117 -8 40 -16 94 -18 120 l-2 48 78 5 c75 5 80
7 113 42 19 21 34 47 34 58 0 48 -48 105 -130 155 -25 15 -47 29 -49 31 -5 4
29 50 103 139 122 146 166 264 165 440 0 155 -40 325 -102 430 -63 108 -164
216 -305 328 -40 32 -91 81 -113 110 -35 43 -40 56 -35 84 19 107 20 101 -12
133 -58 57 -158 33 -178 -44 -3 -15 2 -51 15 -88 34 -107 65 -327 81 -588 5
-91 20 -262 31 -381 l21 -215 -43 -85 c-43 -83 -44 -86 -47 -201 -5 -153 8
-195 99 -317 38 -51 69 -97 69 -102 0 -16 -153 -10 -269 11 -125 23 -178 41
-187 65 -4 9 33 108 85 228 50 117 91 215 91 219 0 4 -23 20 -52 34 -85 43
-128 84 -184 172 -1 1 -35 -15 -75 -37 -41 -22 -112 -50 -158 -62 l-84 -23 6
-120 c7 -127 29 -269 52 -323 11 -25 24 -35 66 -50 38 -13 62 -31 93 -67 86
-103 194 -151 425 -190 l126 -21 27 -190 c67 -469 179 -915 310 -1240 23 -57
72 -147 113 -210 40 -60 77 -119 83 -130 36 -70 55 -245 87 -800 9 -148 18
-276 20 -283 6 -18 -13 -381 -26 -487 -13 -106 -29 -148 -72 -193 -18 -18
-114 -85 -214 -148 -167 -105 -183 -118 -189 -149 -3 -18 -4 -41 -2 -52 3 -17
29 -18 668 -17 495 1 788 7 1145 22 1042 46 1591 49 3656 26 721 -9 1063 10
1469 81 452 79 750 178 963 319 205 137 443 415 546 637 48 104 58 147 67 276
l7 102 91 45 c249 121 426 288 512 482 14 32 43 112 65 178 57 172 69 187 193
247 112 53 186 118 186 162 0 38 -94 181 -132 201 -30 16 -41 17 -87 7 -73
-16 -80 -14 -92 16 -7 20 -6 30 3 39 18 17 1811 422 2347 530 109 22 190 34
212 30 66 -11 108 55 61 97 -24 22 -44 21 -75 -3 -17 -14 -87 -33 -219 -61
-106 -22 -422 -89 -703 -149 -280 -60 -559 -116 -620 -125 -60 -9 -288 -50
-505 -91 -217 -41 -444 -81 -505 -89 -60 -9 -245 -45 -410 -81 -392 -85 -563
-120 -710 -144 -116 -19 -205 -26 -205 -15 0 3 11 27 24 53 75 148 178 426
226 607 53 200 59 344 24 575 -46 308 -125 551 -245 762 -31 54 -47 93 -43
100 5 7 45 58 89 113 148 181 216 301 259 449 66 228 48 431 -64 706 -109 269
-248 599 -300 713 -92 201 -258 487 -283 487 -5 0 -31 -13 -56 -30 -59 -37
-99 -54 -205 -85 -171 -49 -369 -72 -387 -44 -5 8 -9 127 -9 266 l0 252 58 73
c33 41 78 90 100 109 25 22 42 45 42 57 0 12 -13 63 -29 114 -16 51 -62 205
-102 343 l-72 250 7 127 c4 71 9 134 12 142 10 27 160 34 345 16 157 -16 262
-39 522 -116 16 -5 17 -3 8 15 -24 43 -197 148 -323 196 -27 10 -48 21 -48 25
0 4 27 10 60 14 32 4 85 14 117 22 61 16 147 53 140 61 -3 2 -53 8 -113 13
-172 14 -245 33 -380 100 -92 46 -141 64 -204 75 -46 8 -87 18 -91 22 -4 5 -9
26 -11 48 -3 37 -6 40 -34 43 -31 3 -32 2 -37 -50 -12 -101 -18 -205 -32 -520
l-14 -317 -61 -146 c-33 -81 -90 -212 -125 -291 -35 -79 -67 -154 -71 -168 -5
-21 4 -37 53 -93 104 -118 163 -202 163 -231 -1 -85 -21 -412 -26 -427 -6 -15
-16 -17 -66 -11 -119 12 -434 95 -580 152 -32 12 -58 20 -58 17 0 -3 22 -74
49 -157 58 -179 95 -325 86 -334 -4 -4 -199 -9 -434 -11 l-427 -3 -13 28 c-35
76 -132 329 -159 414 -51 161 -65 249 -67 440 l-2 175 -46 11 c-24 7 -148 33
-273 58 -335 68 -604 136 -611 153 -9 23 101 178 150 212 25 17 47 37 50 45 7
19 -16 44 -48 52 -18 5 -31 27 -68 122 -85 222 -170 500 -206 679 -17 80 -21
139 -21 285 0 100 5 201 11 222 l11 39 366 -7 c374 -7 453 -2 546 34 45 17 22
27 -104 45 -141 19 -320 73 -320 96 0 4 17 11 38 14 202 35 322 67 322 86 0
11 -25 16 -115 24 -38 4 -110 15 -158 26 -108 24 -319 49 -408 49 -36 0 -87 3
-113 6 -42 6 -46 9 -46 35 0 38 -57 68 -75 39z m-64 -1376 c-5 -60 -16 -176
-22 -257 -8 -90 -17 -151 -24 -153 -6 -3 -29 -1 -50 4 -35 7 -40 12 -43 37 -2
28 94 403 120 468 22 55 30 13 19 -99z m192 -64 c36 -107 48 -153 67 -274 8
-52 8 -71 0 -76 -15 -10 -101 0 -117 13 -9 6 -13 44 -13 121 0 150 12 339 20
329 4 -4 23 -55 43 -113z m2723 -457 c-2 -10 -10 -94 -17 -188 -7 -93 -16
-180 -20 -192 -8 -20 -15 -23 -69 -23 -42 0 -62 4 -66 14 -3 7 6 44 20 82 74
208 109 300 118 312 16 19 40 15 34 -5z m119 -65 c10 -40 35 -122 57 -183 21
-60 36 -115 34 -122 -6 -14 -101 -19 -110 -5 -2 4 -8 92 -12 195 -8 205 1 239
31 115z m-3114 50 c12 -10 15 -26 11 -60 -2 -27 -8 -48 -13 -48 -9 0 -59 92
-59 110 0 14 43 13 61 -2z m339 -13 c10 -12 5 -27 -27 -82 -21 -38 -42 -76
-46 -85 -3 -10 -16 -18 -27 -18 -19 0 -20 6 -20 94 l0 95 38 4 c20 2 44 4 53
5 9 1 22 -5 29 -13z m2814 -427 c-13 -23 -37 -48 -46 -48 -4 0 -8 14 -8 30 0
27 3 30 31 30 21 0 28 -4 23 -12z m-226 -4 c16 -5 22 -14 22 -33 0 -15 -3 -31
-7 -34 -10 -11 -53 34 -53 55 0 20 4 21 38 12z m-4969 -966 c44 -136 83 -288
77 -303 -5 -15 -75 -30 -87 -18 -4 4 -15 87 -24 183 -8 96 -17 187 -20 203 -3
19 0 27 9 27 9 0 26 -35 45 -92z m291 -159 c552 -461 664 -559 668 -584 3 -25
-68 -173 -138 -286 -109 -175 -321 -427 -398 -473 -23 -13 -60 21 -103 96 -22
40 -56 96 -74 123 -18 28 -56 91 -85 140 -50 86 -53 96 -80 250 -23 133 -27
176 -21 256 l6 96 50 57 c28 32 56 66 63 76 11 15 4 47 -52 218 -37 111 -66
204 -66 207 0 13 45 -21 230 -176z m-470 47 c0 -67 -3 -151 -6 -185 -7 -61 -7
-61 -39 -61 -18 0 -35 6 -38 13 -4 10 46 309 58 345 3 6 9 12 15 12 6 0 10
-45 10 -124z m4636 -92 c61 -193 50 -493 -25 -708 -74 -210 -187 -451 -317
-672 -46 -79 -97 -170 -114 -203 -17 -34 -34 -61 -38 -61 -14 0 -76 71 -216
247 l-138 172 22 58 c73 195 110 382 110 562 -1 248 -30 402 -106 556 -24 50
-44 96 -44 103 0 12 205 18 635 17 l209 0 22 -71z m-2997 -1006 c24 -27 101
-131 237 -322 54 -76 103 -145 109 -152 5 -7 6 -16 3 -20 -11 -11 -242 20
-943 127 -110 17 -203 33 -207 36 -18 11 -5 34 45 78 85 75 158 119 289 175
153 65 281 99 374 100 62 0 75 -3 93 -22z m535 -64 c14 -5 16 -28 16 -148 0
-194 -10 -306 -26 -306 -7 0 -28 28 -47 63 -158 290 -187 347 -187 360 0 12
16 17 68 22 37 3 76 7 87 9 38 6 73 6 89 0z m495 -35 c52 -10 99 -23 105 -29
14 -14 3 -31 -117 -182 -134 -170 -202 -243 -215 -234 -17 10 -15 147 3 231 8
39 17 104 21 145 9 109 6 108 203 69z m564 -67 c67 -38 189 -110 271 -160 81
-51 153 -92 160 -92 6 0 24 23 41 50 16 28 35 50 41 50 22 0 352 -415 340
-427 -3 -4 -57 -1 -118 5 -62 7 -200 22 -307 32 -220 22 -405 43 -561 65 -58
8 -181 24 -275 35 -186 23 -205 27 -205 41 0 14 265 293 336 354 31 28 74 65
93 82 20 18 42 33 49 33 7 0 68 -31 135 -68z m-3543 -46 c0 -2 7 -39 14 -82
14 -75 39 -282 68 -564 7 -69 13 -231 13 -360 0 -214 -2 -244 -24 -330 -28
-111 -69 -231 -119 -349 -35 -82 -36 -83 -66 -78 -130 23 -249 47 -257 52 -15
10 -12 29 51 311 77 342 161 738 205 969 65 337 89 435 106 435 5 0 9 -2 9 -4z
m5415 -481 l0 -90 -80 -3 c-44 -2 -141 1 -215 7 -74 6 -214 15 -310 22 -256
16 -278 34 -105 84 156 45 407 74 615 71 l95 -1 0 -90z m401 50 c82 -8 201
-28 265 -44 123 -31 320 -108 327 -128 3 -10 -17 -13 -80 -13 -111 0 -612 20
-667 26 l-44 6 6 66 c6 77 14 102 32 102 7 0 79 -7 161 -15z m-3871 -311 c93
-44 193 -64 325 -64 64 0 111 -4 115 -10 4 -6 -7 -31 -24 -57 -17 -25 -34 -62
-37 -82 -4 -20 -21 -70 -39 -111 -18 -41 -54 -127 -80 -190 -27 -63 -80 -185
-118 -270 -38 -85 -85 -189 -103 -230 -19 -41 -39 -74 -45 -72 -12 3 -26 18
-159 182 -237 291 -278 350 -323 460 -24 58 -87 190 -140 294 -53 104 -97 190
-97 191 0 1 65 0 143 -3 137 -4 148 -3 223 22 43 15 99 37 123 50 l45 23 60
-50 c34 -28 93 -65 131 -83z m491 -109 c-4 -14 -13 -25 -21 -25 -20 0 -19 20
2 50 19 27 29 14 19 -25z m1738 -9 c35 -30 73 -57 85 -61 13 -4 21 -14 20 -28
-1 -34 -193 -600 -204 -604 -6 -2 -82 59 -171 134 -215 185 -498 429 -558 485
l-50 45 64 31 c35 18 69 32 77 32 7 0 36 -18 63 -39 73 -57 144 -81 243 -81
126 0 203 26 312 104 27 20 51 36 53 36 1 0 31 -24 66 -54z m-1326 10 c87 -27
215 -46 318 -46 47 0 67 -5 90 -22 71 -53 793 -682 798 -695 6 -16 -433 -1340
-466 -1405 -15 -31 -24 -38 -48 -38 -18 0 -33 7 -39 18 -5 9 -46 127 -91 262
-45 135 -108 313 -140 395 -32 83 -88 245 -125 360 -89 278 -244 730 -302 880
-96 252 -119 333 -90 322 7 -3 50 -17 95 -31z m1824 -27 c21 -30 71 -119 111
-199 190 -377 230 -701 130 -1050 -33 -116 -41 -122 -95 -78 -129 106 -505
431 -515 446 -12 17 -6 38 163 566 25 76 58 164 74 195 17 31 30 59 30 63 0
24 44 118 53 115 7 -2 29 -28 49 -58z m-6761 20 c19 -7 37 -15 42 -19 9 -8 20
-274 12 -300 -5 -15 -15 -20 -38 -20 -18 0 -37 4 -44 8 -14 9 -53 232 -53 300
0 37 3 42 24 42 12 0 38 -5 57 -11z m255 -54 l32 -13 -15 -49 c-8 -26 -28 -92
-45 -145 -31 -97 -32 -98 -63 -98 -57 0 -59 13 -36 172 12 79 21 147 21 151 0
10 64 -1 106 -18z m6277 -64 c4 -4 -6 -43 -21 -87 -16 -43 -66 -196 -112 -339
-45 -143 -86 -264 -90 -269 -12 -12 -70 32 -70 53 0 10 6 37 14 62 8 24 54
166 102 314 47 149 92 273 98 277 12 9 66 0 79 -11z m-2060 -28 c3 -5 -3 -35
-13 -68 -10 -33 -46 -161 -80 -285 -69 -250 -188 -651 -196 -659 -2 -3 -18 9
-35 25 l-30 31 105 319 c171 515 217 644 232 644 7 0 15 -3 17 -7z m97 -191
c0 -31 -59 -356 -109 -597 -82 -397 -91 -438 -97 -444 -2 -3 -16 6 -30 20
l-25 25 16 70 c9 38 44 184 79 324 35 140 78 318 96 395 46 201 50 215 60 215
6 0 10 -4 10 -8z m403 -272 c30 -118 61 -242 67 -275 7 -33 36 -145 66 -250
29 -104 85 -325 124 -490 39 -165 84 -357 100 -426 17 -70 30 -129 30 -133 0
-9 -55 -7 -82 3 -28 10 -37 47 -108 416 -46 235 -99 500 -193 965 -36 173 -68
340 -72 370 -14 106 12 37 68 -180z m-1972 45 c10 -7 43 -150 79 -349 38 -216
39 -206 -7 -206 -21 0 -44 4 -52 9 -15 9 -121 527 -113 550 4 9 16 11 45 7 22
-4 44 -9 48 -11z m290 -128 c96 -63 185 -126 198 -141 l25 -26 -40 -41 c-62
-65 -213 -189 -230 -189 -8 0 -19 12 -25 28 -12 31 -71 247 -100 365 -10 43
-23 86 -29 96 -10 20 -2 34 16 27 7 -2 90 -56 185 -119z m-497 35 c14 -61 43
-237 61 -364 6 -45 5 -48 -17 -48 -38 0 -300 69 -325 85 -22 15 -23 21 -23
135 0 106 2 122 20 140 33 33 246 134 262 124 3 -2 13 -35 22 -72z m1082 -250
l123 -154 -19 -46 c-33 -85 -146 -346 -190 -439 -27 -58 -49 -93 -58 -93 -27
0 -159 109 -260 215 -73 76 -110 125 -141 183 -22 44 -41 82 -41 85 0 3 60 61
134 130 l135 125 80 7 c95 8 92 3 56 126 -13 46 -24 89 -24 94 0 15 66 -60
205 -233z m684 71 c0 -356 -13 -754 -25 -751 -19 5 -135 144 -135 161 0 21 51
274 94 471 20 87 39 181 42 207 12 92 24 49 24 -88z m294 -43 c14 -74 30 -171
35 -215 5 -44 30 -190 55 -325 25 -135 52 -295 60 -357 9 -61 27 -169 41 -240
14 -70 25 -134 25 -140 0 -8 -14 -13 -39 -13 -59 0 -54 -11 -90 235 -11 72
-22 171 -26 220 -8 115 -51 483 -70 600 -26 163 -45 345 -38 377 5 28 7 29 14
13 4 -11 19 -81 33 -155z m1432 5 c6 -15 -94 -341 -143 -469 -20 -50 -83 -230
-140 -401 -138 -407 -157 -444 -199 -380 -16 25 -15 31 29 163 25 75 74 220
108 322 33 102 85 255 115 340 29 85 71 214 94 285 23 72 47 145 55 163 l15
34 31 -22 c17 -13 33 -28 35 -35z m-3946 15 c0 -50 -26 -80 -69 -80 -65 0 -66
13 -4 63 32 25 61 46 66 47 4 0 7 -14 7 -30z m4072 -117 c58 -48 310 -264 420
-361 118 -103 115 -95 62 -178 -82 -130 -256 -280 -559 -483 -239 -160 -331
-215 -350 -207 -25 9 -18 51 34 210 28 83 71 219 97 301 26 83 76 238 111 345
35 107 65 202 66 210 2 8 5 20 9 25 3 6 16 39 27 75 12 36 24 71 26 78 7 18
20 15 57 -15z m-2258 -302 c-4 -14 -27 -96 -51 -181 -25 -85 -52 -181 -61
-213 -8 -32 -21 -61 -29 -64 -22 -9 -103 18 -103 34 0 17 157 478 173 508 9
18 12 17 43 -19 26 -30 32 -45 28 -65z m701 -416 c20 -159 42 -325 50 -369 8
-43 15 -80 15 -82 0 -13 -61 0 -95 19 l-40 23 3 344 c1 190 5 361 8 380 l7 35
8 -30 c5 -16 25 -160 44 -320z m-514 223 c6 -11 -1 -67 -23 -167 l-31 -151
-34 0 c-20 0 -36 6 -39 15 -3 8 10 86 31 172 47 204 41 190 66 167 12 -10 25
-26 30 -36z m128 -158 l71 -81 0 -83 c0 -45 -3 -85 -6 -89 -11 -11 -49 14 -72
48 -19 30 -28 35 -60 35 -55 0 -66 11 -58 56 17 101 40 194 47 194 4 0 39 -36
78 -80z m3670 -40 c55 -11 121 -29 147 -40 93 -40 274 -190 230 -190 -10 0
-33 9 -50 19 -28 17 -60 19 -346 23 l-315 5 0 99 c0 96 1 98 25 106 39 12 199
1 309 -22z m1639 -167 c26 -67 34 -116 20 -125 -29 -20 -129 -68 -241 -117
-125 -54 -222 -84 -410 -126 -110 -24 -124 -25 -193 -14 -51 8 -92 22 -129 44
-68 42 -145 106 -145 122 0 24 184 68 820 197 264 54 264 54 278 19z m-2661
-18 c3 -9 3 -18 0 -22 -10 -10 -95 -16 -114 -8 -15 6 -11 11 22 26 49 23 84
24 92 4z m-322 -150 c-60 -78 -167 -137 -291 -160 -93 -18 -264 -21 -247 -4
17 17 558 218 561 208 2 -5 -9 -24 -23 -44z"/>
</g>
</svg>
